# xmcd CD database file
#
# Track frame offsets:
#	182
#	20257
#	36157
#	49570
#	64507
#	80482
#	92632
#	108457
#	124627
#	137782
#	151395
#	164982
#	185482
#	199507
#	213607
#	230320
#	245632
#	261125
#
# Disc length: 3741 seconds
#
# Revision: 0
# Processed by: cddbd v1.4PL0 Copyright (c) Steve Scherf et al.
# Submitted via: CDex 1.50Beta7
#
DISCID=f80e9b12
DTITLE=Various Artist - Kool Country
DYEAR=1900
DGENRE=Country
TTITLE0=I Swear-John Michael Montgomery
TTITLE1=Forever And Ever, Amen-Randy Travis
TTITLE2=Pocket of a Clown-Dwight Yoakam
TTITLE3=Take Me As I Am-Faith Hill
TTITLE4=Ten Feet Tall and Bulletproof-Travis Tritt
TTITLE5=Born To Boogie-Hank Williams Jr
TTITLE6=Elvis and Andy-Confederate Railroad
TTITLE7=The City Put the Country Back Into Me-Neal McCoy
TTITLE8=Where There's Smoke-Archer and Park
TTITLE9=As Any Fool Can See-Tracy Lawrence
TTITLE10=Thinkin' Problem-David Ball
TTITLE11=Rhyme of the Renegades-Michael Martin Murphey
TTITLE12=Stop On A Dime-Little Texas
TTITLE13=Look At Me Now-Bryan White
TTITLE14=Daddy Never Was the Cadillac Kind-Confederate Railroad
TTITLE15=For A Change-Neal McCoy
TTITLE16=He Walked On Water-Randy Travis
TTITLE17=Foolish Pride-Travis Tritt
EXTD=
EXTT0=
EXTT1=
EXTT2=
EXTT3=
EXTT4=
EXTT5=
EXTT6=
EXTT7=
EXTT8=
EXTT9=
EXTT10=
EXTT11=
EXTT12=
EXTT13=
EXTT14=
EXTT15=
EXTT16=
EXTT17=
PLAYORDER=
